<svg width="160" height="160" viewBox="0 0 160 160" fill="none" xmlns="http://www.w3.org/2000/svg">
<path fill-rule="evenodd" clip-rule="evenodd" d="M117.999 61.125C129.116 61.125 138.125 51.9186 138.125 40.5617C138.125 29.2064 129.116 20 117.999 20C106.884 20 97.875 29.2064 97.875 40.5617C97.875 51.9186 106.884 61.125 117.999 61.125Z" fill="#38BDF8"/>
<path fill-rule="evenodd" clip-rule="evenodd" d="M113.454 115.253C113.419 115.082 113.384 114.911 113.347 114.741C113.277 114.429 113.202 114.12 113.126 113.81C112.997 113.28 112.863 112.752 112.72 112.227C112.64 111.936 112.555 111.645 112.47 111.354C112.308 110.814 112.141 110.277 111.962 109.745C111.875 109.482 111.784 109.219 111.69 108.959C111.492 108.396 111.283 107.84 111.064 107.288C110.977 107.065 110.89 106.843 110.798 106.622C110.551 106.024 110.293 105.435 110.022 104.849C109.945 104.68 109.869 104.508 109.792 104.342C109.481 103.685 109.152 103.037 108.816 102.399C108.767 102.305 108.722 102.212 108.67 102.12C103.929 93.2803 96.5671 86.0432 87.6307 81.4471C93.6244 71.0804 104.834 64.07 117.671 64.0236C130.989 63.974 142.608 71.4378 148.492 82.4088C148.529 82.4732 148.56 82.5393 148.595 82.6053C148.832 83.0545 149.063 83.5102 149.282 83.9726C149.336 84.0898 149.389 84.2104 149.444 84.3292C149.634 84.7421 149.816 85.1565 149.99 85.5776C150.055 85.7328 150.116 85.8897 150.177 86.0466C150.331 86.4346 150.479 86.826 150.618 87.2223C150.684 87.4056 150.748 87.5905 150.81 87.7755C150.935 88.1503 151.053 88.5284 151.167 88.9082C151.227 89.113 151.286 89.3177 151.343 89.5225C151.444 89.8924 151.538 90.2639 151.629 90.6371C151.682 90.8551 151.735 91.073 151.785 91.2927C151.864 91.6626 151.935 92.0357 152.005 92.4089C152.048 92.6351 152.092 92.8597 152.13 93.0876C152.193 93.4674 152.243 93.8505 152.293 94.2352C152.322 94.4582 152.356 94.6811 152.382 94.9056C152.427 95.3218 152.46 95.7412 152.49 96.1606C152.505 96.3555 152.526 96.5487 152.538 96.7468C152.572 97.3627 152.594 97.9836 152.596 98.6095C152.597 98.8836 152.582 99.1593 152.559 99.4351C152.553 99.521 152.541 99.6068 152.533 99.691C152.51 99.8892 152.483 100.087 152.45 100.285C152.433 100.378 152.417 100.472 152.399 100.566C152.357 100.769 152.309 100.974 152.256 101.177C152.235 101.258 152.215 101.336 152.193 101.417C152.028 101.981 151.811 102.548 151.54 103.111C151.503 103.188 151.46 103.264 151.422 103.342C151.314 103.548 151.204 103.755 151.083 103.961C151.031 104.047 150.98 104.131 150.927 104.217C150.796 104.429 150.656 104.638 150.508 104.848C150.46 104.917 150.414 104.985 150.364 105.054C146.325 110.56 136.438 115.279 117.856 115.347C116.371 115.352 114.901 115.32 113.454 115.253Z" fill="#38BDF8"/>
<path fill-rule="evenodd" clip-rule="evenodd" d="M60.4987 71C78.4515 71 93 56.225 93 37.9987C93 19.775 78.4515 5 60.4987 5C42.5485 5 28 19.775 28 37.9987C28 56.225 42.5485 71 60.4987 71Z" fill="#38BDF8"/>
<path fill-rule="evenodd" clip-rule="evenodd" d="M109.507 138.319C109.586 138.192 109.662 138.068 109.739 137.941C109.92 137.637 110.085 137.332 110.246 137.028C110.303 136.913 110.367 136.801 110.422 136.686C110.827 135.855 111.151 135.019 111.399 134.186C111.431 134.067 111.461 133.952 111.493 133.833C111.572 133.533 111.644 133.231 111.705 132.931C111.733 132.792 111.757 132.653 111.782 132.517C111.832 132.224 111.871 131.932 111.906 131.639C111.918 131.515 111.936 131.388 111.945 131.262C111.98 130.855 112.002 130.448 112 130.043C111.997 129.119 111.965 128.203 111.913 127.294C111.896 127.002 111.864 126.717 111.842 126.429C111.797 125.81 111.748 125.191 111.681 124.577C111.641 124.246 111.592 123.917 111.547 123.588C111.473 123.02 111.399 122.454 111.305 121.894C111.248 121.558 111.181 121.226 111.117 120.892C111.013 120.341 110.907 119.791 110.788 119.245C110.714 118.921 110.634 118.599 110.555 118.277C110.419 117.727 110.278 117.178 110.127 116.632C110.043 116.33 109.954 116.028 109.865 115.726C109.694 115.165 109.519 114.607 109.331 114.054C109.239 113.781 109.143 113.508 109.044 113.238C108.836 112.653 108.616 112.075 108.386 111.502C108.294 111.271 108.203 111.039 108.106 110.81C107.847 110.189 107.575 109.577 107.29 108.968C107.209 108.793 107.129 108.615 107.048 108.442C106.721 107.759 106.375 107.087 106.021 106.424C105.969 106.326 105.922 106.229 105.868 106.134C97.0745 89.9425 79.7129 78.9273 59.8109 79.0004C31.1377 79.1027 7.89646 102.169 8.00035 130.416C8.02261 136.274 11.211 144.392 26.2748 149.795C35.2957 153.031 47.3072 154.788 60.0879 154.744C87.8557 154.645 102.63 147.68 108.665 139.555C108.74 139.452 108.809 139.352 108.881 139.25C109.101 138.941 109.311 138.631 109.507 138.319Z" fill="#38BDF8"/>
</svg>
