<svg width="160" height="160" viewBox="0 0 160 160" fill="none" xmlns="http://www.w3.org/2000/svg">
<mask id="mask0_2_22" style="mask-type:luminance" maskUnits="userSpaceOnUse" x="0" y="0" width="160" height="159">
<path d="M0 0H159.216V158.43H0V0Z" fill="#38BDF8"/>
</mask>
<g mask="url(#mask0_2_22)">
<path fill-rule="evenodd" clip-rule="evenodd" d="M151.763 84.9988H93.8431C89.5106 84.9988 86 88.5094 86 92.8419V150.759C86 155.091 89.5106 158.602 93.8431 158.602H151.763C156.096 158.602 159.606 155.091 159.606 150.759V92.8419C159.606 88.5094 156.096 84.9988 151.763 84.9988ZM151.763 1.99878H93.8431C89.5106 1.99878 86 5.51251 86 9.84192V67.7619C86 72.0945 89.5106 75.605 93.8431 75.605H151.763C156.096 75.605 159.606 72.0945 159.606 67.7619V9.84192C159.606 5.51251 156.096 1.99878 151.763 1.99878ZM65.7631 84.9988H7.84314C3.51059 84.9988 0 88.5094 0 92.8419V150.759C0 155.091 3.51059 158.602 7.84314 158.602H65.7631C70.0957 158.602 73.6063 155.091 73.6063 150.759V92.8419C73.6063 88.5094 70.0957 84.9988 65.7631 84.9988ZM65.7631 1.99878H7.84314C3.51059 1.99878 0 5.51251 0 9.84192V67.7619C0 72.0945 3.51059 75.605 7.84314 75.605H65.7631C70.0957 75.605 73.6063 72.0945 73.6063 67.7619V9.84192C73.6063 5.51251 70.0957 1.99878 65.7631 1.99878Z" fill="#38BDF8"/>
</g>
</svg>
