<?xml version="1.0" encoding="UTF-8"?>
<svg width="44px" height="44px" viewBox="0 0 44 44" version="1.1" xmlns="http://www.w3.org/2000/svg" xmlns:xlink="http://www.w3.org/1999/xlink">
    <!-- Generator: Sketch 47.1 (45422) - http://www.bohemiancoding.com/sketch -->
    <title>Around world</title>
    <desc>Created with Sketch.</desc>
    <defs></defs>
    <g id="Page-1" stroke="none" stroke-width="1" fill="none" fill-rule="evenodd">
        <g id="Around-world" transform="translate(1.000000, 1.000000)">
            <path d="M19.2438476,5.82023838 C19.3042506,5.79027003 19.3228934,5.78598879 19.3378076,5.78170755 C19.3467561,5.80263789 19.3430275,5.82975216 19.3266219,5.86305035 L19.4272931,5.9379713 C19.4794929,5.97364794 19.51305,6.0164599 19.5279642,6.0664072 C19.5428784,6.1163545 19.5354213,6.1555988 19.5055928,6.18414011 C19.4757644,6.21268142 19.4720358,6.24835806 19.4944072,6.29117003 C19.5167785,6.333982 19.5503356,6.37679397 19.5950783,6.41960594 C19.639821,6.4624179 19.6621924,6.51593286 19.6621924,6.58015081 C19.6621924,6.64436877 19.637584,6.71072734 19.5883672,6.77922653 C19.5406414,6.84629857 19.5055928,6.88197521 19.4832215,6.88625645 C19.4496644,6.96189086 19.4198359,6.97473447 19.360179,6.97188039 C19.300522,6.96759915 19.2632364,6.9583232 19.2483221,6.94405254 C19.2383793,6.93453877 19.216008,6.92740344 19.1812081,6.92264656 L19.0917226,6.93334955 L19.1364653,7.00827049 C19.1662938,7.01540582 19.1648023,7.06535312 19.1319908,7.15811238 C19.0976882,7.25087165 19.0805369,7.34006324 19.0805369,7.42568718 C19.0805369,7.51131112 19.0618941,7.58979972 19.0246085,7.661153 C18.9873229,7.73250628 18.9560029,7.77389121 18.9306485,7.78530778 C18.903803,7.79529719 18.8739746,7.80243252 18.841163,7.80671376 C18.8068605,7.80956785 18.7725579,7.83097383 18.7382553,7.87093171 C18.7054438,7.90946244 18.6778523,7.93086832 18.655481,7.93514934 C18.6331096,7.93800364 18.6353467,7.96083678 18.6621921,8.00364875 C18.6875465,8.04646072 18.6979867,8.0807102 18.6935126,8.10639721 C18.6905295,8.1306575 18.6629381,8.15206348 18.6107383,8.17061517 C18.5585384,8.18774012 18.5324385,8.21414092 18.5324385,8.24981756 C18.4765101,8.30333252 18.4653244,8.32117084 18.4653244,8.35684748 C18.4280388,8.41036244 18.411633,8.43533609 18.3937357,8.48528339 C18.3743474,8.53523068 18.351976,8.56733966 18.3266217,8.58161031 C18.2997762,8.59588097 18.2654736,8.67436958 18.2237139,8.81707614 C18.1834453,8.9597827 18.1707681,9.10248926 18.1856823,9.24519582 C18.2005966,9.38790238 18.2177479,9.46781813 18.2371362,9.48494309 C18.2550335,9.50349477 18.2953021,9.51491113 18.3579421,9.51919215 C18.4220732,9.52204646 18.4876957,9.59839455 18.5548098,9.74823644 C18.6219239,9.89807833 18.6532439,9.9801346 18.6487698,9.99440525 L18.7561521,9.97728072 C18.8307233,9.95302044 18.901566,9.94445796 18.9686801,9.95159329 C19.0357942,9.95872861 19.1200596,9.97870745 19.2214762,10.0115298 C19.3214018,10.0429254 19.4049217,10.0800292 19.4720358,10.1228412 C19.5391499,10.1656531 19.6524982,10.2170276 19.8120808,10.2769645 C19.9731545,10.3383281 20.1282625,10.3618746 20.2774049,10.347604 C20.4265474,10.3333333 20.5197614,10.3283385 20.557047,10.3326195 C20.5943326,10.3354738 20.6263981,10.3868483 20.6532436,10.4867429 C20.678598,10.5866375 20.7061894,10.6651261 20.7360179,10.7222087 C20.7658464,10.7792913 20.7882177,10.8399416 20.803132,10.9041596 C20.8180462,10.9683775 20.868009,11.0375903 20.9530204,11.1117979 C21.0395228,11.1874322 21.1014169,11.2273898 21.1387025,11.2316709 C21.1759881,11.2345252 21.2095451,11.2630665 21.2393736,11.3172948 C21.2692021,11.3700964 21.3139448,11.3986377 21.3736018,11.4029187 L21.4630872,11.4072002 C21.4720359,11.3001703 21.4914242,11.2787643 21.5257268,11.2787643 C21.5585383,11.2787643 21.5749441,11.228817 21.5749441,11.1289224 C21.5749441,11.0290278 21.5637584,10.9733723 21.541387,10.961956 C21.5190157,10.9519664 21.479493,10.8848941 21.4228191,10.7607392 C21.3676362,10.6351576 21.3154363,10.5545285 21.2662195,10.5188519 C21.2184938,10.4831752 21.1886653,10.4439309 21.176734,10.4011189 C21.1662939,10.358307 21.1983594,10.3012244 21.2729306,10.2298711 C21.3475019,10.1585178 21.4071588,10.0657585 21.4519016,9.95159329 C21.4966443,9.83742804 21.5041014,9.71612746 21.4742729,9.58769156 C21.4444444,9.45925566 21.3997017,9.36649639 21.3400447,9.30941377 C21.2803878,9.25233114 21.1961224,9.19382137 21.0872486,9.13388444 C20.9798659,9.07252079 20.9351231,8.96834518 20.9530204,8.82135759 C20.9724087,8.67579673 20.9649516,8.57447499 20.930649,8.51739236 C20.8978375,8.46030974 20.862789,8.43034127 20.8255034,8.42748697 C20.7882177,8.42320595 20.7755406,8.39751894 20.7874718,8.35042594 C20.7979119,8.30475967 20.7979119,8.2590934 20.7874718,8.21342713 C20.7755406,8.16633414 20.7531692,8.12352217 20.7203577,8.08499123 C20.6860551,8.04503356 20.6651752,8.00008108 20.6577181,7.95013379 L20.6465324,7.87521284 L20.7248322,7.84310387 L20.930649,7.81527602 C21.0693513,7.79815128 21.1513797,7.77175059 21.176734,7.73607395 C21.2035795,7.70039731 21.2580164,7.69112136 21.3400447,7.7082461 C21.4220731,7.726798 21.4988813,7.75248522 21.5704695,7.78530778 C21.6405667,7.81670318 21.6808353,7.84096325 21.6912754,7.85808799 C21.7032067,7.87663989 21.7427293,7.88591584 21.8098434,7.88591584 C21.8769575,7.88591584 21.940343,7.88377532 22,7.8794943 C22.059657,7.87663999 22.1029082,7.91802481 22.1297536,8.00364875 C22.155108,8.08927268 22.1879196,8.16205311 22.2281882,8.22199004 C22.2699479,8.28335369 22.3042505,8.31903033 22.3310959,8.32901996 C22.3788217,8.38182113 22.4138702,8.39751894 22.4809843,8.4146439 C22.5480984,8.43319558 22.6152125,8.44461193 22.6823266,8.44889296 L22.7829978,8.45317441 C22.7919464,8.41749777 22.8016406,8.38895646 22.8165548,8.34614449 C22.8314691,8.30333252 22.8463833,8.27479121 22.8612975,8.26052055 C22.8762118,8.2462499 22.8762118,8.1570583 22.8612975,7.99294576 L22.8389262,7.74677694 L22.917226,7.71466796 L22.9731544,7.74677694 L23.2416107,7.91374336 C23.4131245,8.01649225 23.5100671,8.0807102 23.5324385,8.10639721 C23.5548098,8.1306575 23.595824,8.14992297 23.655481,8.16419363 C23.715138,8.17846428 23.7822521,8.22627107 23.8568233,8.30761398 C23.9313945,8.39038361 24.0022371,8.45888259 24.0693512,8.51311091 C24.1364653,8.56591251 24.1923937,8.59445382 24.2371365,8.59873484 C24.2818792,8.60158915 24.3154362,8.6187141 24.3378076,8.65010972 C24.360179,8.68293206 24.4384787,8.69577556 24.5727069,8.68864023 C24.7069351,8.68150491 24.7852349,8.67080191 24.8076063,8.65653126 C24.8299776,8.6422606 24.8672632,8.64012009 24.9194631,8.65010972 C24.9716629,8.66152607 24.9903057,8.68293206 24.9753915,8.71432767 C24.9604773,8.74715001 25.0350485,8.77069651 25.1991051,8.78496716 C25.3631618,8.79923782 25.4712901,8.84204979 25.5234899,8.91340306 C25.5756898,8.98475634 25.6181955,9.03256313 25.651007,9.05682341 C25.6853096,9.08251042 25.7046979,9.13459823 25.709172,9.21308684 L25.7136465,9.33081975 L25.7919463,9.29871078 C25.8441462,9.27730479 25.8739746,9.28658063 25.8814318,9.3265383 C25.8888889,9.36506924 25.9060402,9.39646485 25.9328856,9.42072514 C25.95824,9.44641215 25.9634601,9.4842293 25.9485459,9.5341766 C25.9336316,9.5841239 25.9299031,9.64120652 25.9373602,9.70542447 L25.9485459,9.8017514 L25.9597315,9.88737533 L26.0089488,9.82315738 C26.0134229,9.78034541 26.017897,9.75751228 26.0223711,9.75465798 L26.1163311,9.72683045 C26.1372109,9.80531906 26.1722595,9.81744921 26.2393736,9.80603285 C26.3064877,9.79604322 26.3437733,9.77463724 26.3512304,9.7418149 C26.3586875,9.71041929 26.3713647,9.69115381 26.389262,9.68401849 C26.4021876,9.6792616 26.4156103,9.65428795 26.4295302,9.60909754 L26.4966443,9.61980054 L26.5749441,9.62622207 C26.5973154,9.62907638 26.6196868,9.66047199 26.6420582,9.72040892 C26.6644295,9.78177257 26.6905295,9.82315738 26.7203579,9.84456337 C26.7501864,9.86596935 26.7725578,9.86596935 26.787472,9.84456337 C26.7974149,9.83029271 26.8197862,9.81602205 26.8545861,9.8017514 C26.8456375,9.87310468 26.8434004,9.90878132 26.8434004,9.95159329 L26.8545861,10.0479202 L26.9217002,10.0907322 L26.9328859,10.0051082 L26.9485461,9.93446876 L26.9776286,10.0158112 L27,10.2084651 L27,10.358307 L26.9440716,10.294089 C26.9366145,10.2798184 26.9291573,10.2548447 26.9217002,10.2191681 L26.8993289,10.1549501 L26.8434004,10.1271226 L26.8210291,10.2084651 L26.7986577,10.294089 C26.7837435,10.3226303 26.7725578,10.3654423 26.7651007,10.4225249 L26.753915,10.5081489 L26.7203579,10.5723668 L26.6308725,10.5723668 L26.6487693,10.5038674 C26.6621925,10.48817 26.6681581,10.4617692 26.6756152,10.4118219 L26.6868009,10.336901 L26.6308725,10.304792 L26.5973154,10.4011189 C26.5302013,10.4118219 26.5115585,10.4118219 26.4966443,10.4118219 C26.4556301,10.4567744 26.3847875,10.4995864 26.2505593,10.5680854 C26.1163311,10.6351576 26.0432514,10.6779696 26.0313202,10.6965213 L25.9821029,10.7436147 L25.8926174,10.7543177 L25.836689,10.7008027 C25.8553318,10.6223141 25.862789,10.5937728 25.8702461,10.5509608 L25.8747206,10.4824614 C25.8717376,10.4781804 25.8516033,10.4810347 25.8143177,10.4910243 C25.7956749,10.4653369 25.7867262,10.3190627 25.7539147,10.0265142 L25.7024609,9.58769156 L25.6912752,9.48066164 L25.6241611,9.50206762 L25.557047,9.5341766 L25.5078297,9.58341011 C25.4601044,9.62693586 25.4340045,9.7125598 25.3892617,9.87667234 C25.344519,10.0407849 25.2870991,10.1456743 25.217002,10.1913406 C25.1454138,10.2384336 25.0574198,10.2869537 24.9530201,10.336901 C24.8486204,10.3868483 24.7255779,10.4474986 24.5838926,10.5188519 C24.4422073,10.5902051 24.3325875,10.6565636 24.2550333,10.7179273 C24.175988,10.7778642 24.1290082,10.8542123 24.114094,10.9469715 C24.0991797,11.0397308 24.0820284,11.0946729 24.0626401,11.1117979 C24.0447428,11.1303496 24.0149143,11.1731615 23.9731546,11.2402338 L23.9127517,11.3429822 L23.8903803,11.4714181 L23.9574944,11.4500122 L24.0022371,11.3857942 L24.1029083,11.2894673 C24.1700224,11.2252493 24.2162566,11.1731615 24.241611,11.1332039 C24.2684565,11.0946729 24.3191648,11.0504338 24.393736,11.0004865 C24.4683072,10.9505392 24.5242356,10.9219979 24.5615213,10.9148626 L24.6510067,10.9041596 L24.7181208,10.9105811 L24.7628635,10.9576745 L24.8076063,11.0218925 L24.7695747,11.1546098 C24.7427292,11.2445148 24.727815,11.2916078 24.7248319,11.2958888 L24.639821,11.3215763 L24.7114097,11.3601068 C24.7457122,11.3486904 24.7725577,11.3372741 24.791946,11.3258577 C24.8038776,11.319198 24.8262489,11.3498798 24.8590601,11.4179032 C24.8769574,11.4963918 24.9082774,11.5513339 24.9530201,11.5827295 C24.9977629,11.6155519 25.0275913,11.6341035 25.0425056,11.6383846 L25.0827738,11.6897594 L25.1767338,11.696181 L25.2326622,11.664072 C25.1692767,11.6355307 25.1454138,11.6269682 25.1275165,11.6169786 L25.0917229,11.5463391 L25.1498879,11.5185116 L25.2550336,11.5249331 C25.3221477,11.5249331 25.3780761,11.5106625 25.4228188,11.4821211 C25.4675615,11.4535798 25.4914244,11.4371687 25.4944074,11.4328876 L25.557047,11.4179032 L25.5682327,11.4928241 C25.5682327,11.5356361 25.5704697,11.5641774 25.5749438,11.5784481 L25.6465324,11.5784481 L25.7136465,11.5677451 L25.7360179,11.4928241 C25.7285608,11.4785535 25.7248322,11.4143355 25.7248322,11.3001703 L25.7248322,11.1289224 L25.7807606,11.0689859 L25.8478747,11.1075164 L25.8814318,11.1717344 C25.9090232,11.2345252 25.9388517,11.2516501 25.9865774,11.2616398 C26.0357943,11.2730561 26.0529456,11.3108733 26.0380313,11.3750912 C26.0231171,11.4393092 26.0044743,11.4928241 25.9821029,11.5356361 C25.9597315,11.5784481 25.9507829,11.6141247 25.955257,11.642666 C25.9224459,11.685478 25.8888889,11.7225818 25.836689,11.7967894 C25.7844892,11.8724237 25.7509321,11.9123813 25.7360179,11.9166624 C25.7211037,11.9195167 25.7076809,11.9744588 25.6957497,12.0814887 C25.6853096,12.1885186 25.6599552,12.2548771 25.6196865,12.2805641 C25.5779268,12.3048244 25.5346756,12.314814 25.4899329,12.310533 C25.4451902,12.3076787 25.4138702,12.3454958 25.3959729,12.4239844 C25.3765845,12.502473 25.3594333,12.5488527 25.344519,12.5631233 C25.3345762,12.5726371 25.3196619,12.5940431 25.2997763,12.6273413 L25.2393733,12.6316227 L25.1767338,12.6059353 L25.1096197,12.5631233 L25.064877,12.5096084 L25.0536913,12.4239844 C25.0536913,12.3740371 25.064877,12.3169545 25.0872483,12.2527366 L25.1208054,12.1564096 L25.1431767,12.0707857 L25.0827738,12.0707857 L25.0536913,12.1350036 L24.9261742,12.2377521 C24.8620432,12.2834184 24.8351977,12.3276575 24.8456379,12.3704695 C24.8575691,12.4132814 24.8351977,12.4596611 24.7785238,12.5096084 C24.7233409,12.5595557 24.671141,12.6187788 24.6219242,12.6872778 C24.5741984,12.75435 24.5391499,12.7900267 24.5167785,12.7943077 C24.4944072,12.797162 24.4794929,12.8128598 24.4720358,12.8414011 C24.4645787,12.8699424 24.4444444,12.8949161 24.4116328,12.9163221 C24.3773303,12.937728 24.3579419,12.9555664 24.3534678,12.969837 C24.302759,13.0090813 24.2803877,13.0697316 24.2550333,13.1838969 C24.2281878,13.2980621 24.2259508,13.3551447 24.2483221,13.3551447 C24.2706935,13.3551447 24.2856078,13.3779779 24.2930649,13.4236441 C24.300522,13.4707371 24.3303505,13.5121219 24.3825503,13.5477986 C24.4347502,13.5834752 24.4683072,13.5977459 24.4832215,13.5906106 L24.4944072,13.6869375 L24.4787469,13.757577 C24.4623416,13.7704209 24.4399703,13.7704209 24.3982106,13.7661399 C24.3579419,13.7632856 24.3176733,13.7846916 24.2774047,13.8303578 C24.235645,13.8774508 24.1983593,13.9059921 24.1655478,13.9159818 C24.178971,13.9509446 24.1662938,13.9816264 24.114094,14.0358548 C24.0618941,14.0886564 23.99478,14.1400308 23.9127517,14.1899781 C23.8307233,14.2399254 23.7912007,14.3027162 23.7941837,14.3783505 C23.7986578,14.4525581 23.7859806,14.5396092 23.7561521,14.6395038 C23.7263236,14.7393984 23.6793439,14.7907728 23.6152128,14.7936271 L23.5212528,14.8000486 L23.5704701,14.8492822 L23.6219239,14.8963756 C23.6517524,14.9249169 23.6703952,14.9605935 23.6778523,15.0034055 C23.6853095,15.0462175 23.6853095,15.0890294 23.6778523,15.1318414 L23.655481,15.2174653 L23.6331096,15.3030893 L23.6152128,15.3715887 L23.5771812,15.3030893 C23.5771812,15.231736 23.564504,15.2138977 23.5391496,15.2067623 L23.4988814,15.1532474 L23.409396,15.1532474 L23.4205817,15.2602773 L23.4496642,15.3994162 C23.4526472,15.4636342 23.4690529,15.4957431 23.4988814,15.4957431 C23.5436242,15.5314198 23.564504,15.5563934 23.6062637,15.5920701 C23.6465323,15.6277467 23.6629381,15.666991 23.655481,15.709803 C23.6480239,15.7526149 23.6368382,15.7882916 23.6219239,15.8168329 C23.6644296,15.8774832 23.6778523,15.908165 23.6778523,15.9623933 C23.6778523,16.0151949 23.6644296,16.0508716 23.6375842,16.0694232 C23.6122298,16.0865482 23.6032811,16.1165167 23.6107383,16.1593286 C23.6181954,16.2021406 23.6293811,16.2235466 23.6442953,16.2235466 C23.6592095,16.2235466 23.6465323,16.2435254 23.6062637,16.2834831 C23.564504,16.322014 23.536167,16.34342 23.5212528,16.347701 C23.5063386,16.3505553 23.4750186,16.3876591 23.4272928,16.4590124 C23.378076,16.5303657 23.349739,16.5838806 23.3422819,16.6195573 C23.3348248,16.6552339 23.3124534,16.6766399 23.2751678,16.6837752 C23.2378822,16.6909106 23.196868,16.7158842 23.1521253,16.7586962 C23.1073826,16.8015081 23.0648769,16.8728614 23.0246082,16.972756 C22.9828485,17.0726506 22.9261746,17.1475716 22.8545864,17.1975189 C22.7844893,17.2474661 22.7516778,17.2795751 22.7561519,17.2938458 C22.7591349,17.3081164 22.7472037,17.3259548 22.7203582,17.3473607 C22.6950038,17.3687667 22.6711409,17.4436877 22.6487696,17.5721236 C22.6263982,17.7005595 22.6278897,17.8204329 22.6532441,17.9317438 C22.6800896,18.0416281 22.7009694,18.1129813 22.7158837,18.1458037 C22.7307979,18.1771993 22.7457122,18.1928971 22.7606264,18.1928971 C22.7755406,18.1928971 22.8038776,18.2250061 22.8456373,18.289224 C22.885906,18.353442 22.9082773,18.3998216 22.9127514,18.4283629 C22.9634602,18.4890132 22.98434,18.5139869 23.0067114,18.5567988 C23.0290828,18.5996108 23.0775541,18.6780994 23.1521253,18.7922647 C23.2266965,18.9064299 23.2639821,19.0134598 23.2639821,19.1133544 C23.2639821,19.213249 23.2639821,19.28817 23.2639821,19.3381172 L23.2639821,19.4130382 L23.2125282,19.4601316 L23.163311,19.5093651 L23.1073826,19.5371926 C23.0648769,19.4879591 23.0529457,19.4736885 23.0335573,19.4665532 C23.01566,19.4594178 23.0029828,19.4415795 22.9955257,19.4130382 C22.9880686,19.3844969 22.9619687,19.3687991 22.917226,19.3659448 C22.8724832,19.3616637 22.8277405,19.3345496 22.7829978,19.2846023 C22.738255,19.234655 22.7084265,19.1932702 22.6935123,19.1604478 C22.6785981,19.1290522 22.6636838,19.1119273 22.6487696,19.109073 C22.6338553,19.1047919 22.6077554,19.083386 22.5704698,19.044855 C22.5331842,19.0048973 22.5070843,18.9849185 22.49217,18.9849185 C22.46085,18.9492419 22.463833,18.9242682 22.4742732,18.8885916 C22.4175988,18.8436391 22.401193,18.8079625 22.39821,18.7323282 C22.3937359,18.6581206 22.3840418,18.5960431 22.3691275,18.5460958 C22.3542133,18.4961485 22.3296049,18.4697477 22.2953023,18.4668934 C22.2624908,18.4626124 22.2162565,18.4283629 22.1565996,18.364145 C22.0969426,18.299927 22.033557,18.2606827 21.966443,18.2464121 C21.8993289,18.2321414 21.8508576,18.2428444 21.8210291,18.278521 C21.7912006,18.3141977 21.7427293,18.342739 21.6756152,18.364145 C21.6085011,18.385551 21.5615213,18.3841238 21.5346759,18.3598635 C21.5093215,18.3341765 21.4720359,18.3127705 21.4228191,18.2956456 C21.3750933,18.2770939 21.2766592,18.2749534 21.1275168,18.289224 C20.9783743,18.3034947 20.8873974,18.3127705 20.8545859,18.3170516 C20.8202833,18.3199059 20.7307978,18.3341765 20.5861295,18.3598635 C20.4399701,18.3841238 20.3370619,18.3998216 20.2774049,18.4069569 L20.1879195,18.4176599 L20.098434,18.4176599 L20.0313199,18.4497689 L20.1431767,18.5097054 C20.2177479,18.519695 20.2565251,18.5268304 20.2595081,18.5311114 C20.2624908,18.5330143 20.2759136,18.5558474 20.2997763,18.5996108 L20.3176731,18.6745317 L20.2550336,18.6424228 C20.1618195,18.6695369 20.1469053,18.6838076 20.1543624,18.7023593 C20.1618195,18.7194842 20.1208054,18.735182 20.0313199,18.7494527 C19.9418345,18.7637233 19.8896346,18.7580152 19.8747204,18.7323282 C19.8598061,18.7080679 19.8411633,18.6980782 19.8187919,18.7023593 C19.7852349,18.6709641 19.7539149,18.6602611 19.6912749,18.6531258 C19.6271438,18.6459904 19.5824011,18.6552663 19.5570467,18.6809533 C19.5302013,18.7052136 19.4720358,18.7102084 19.3825503,18.6959377 C19.2930649,18.6816671 19.2184937,18.6723912 19.1588367,18.6681102 C19.0991797,18.6652559 19.0581655,18.6766723 19.0357942,18.7023593 C19.0134228,18.7266196 18.9761372,18.7387497 18.9239374,18.7387497 C18.8717375,18.7387497 18.8381805,18.7366092 18.8232662,18.7323282 C18.808352,18.7294739 18.7897092,18.7551609 18.7673378,18.8093892 C18.7449664,18.8621908 18.7002237,18.9135652 18.6331096,18.9635125 C18.5659955,19.0134598 18.5249814,19.040574 18.5100671,19.044855 C18.4876957,19.0848131 18.4615958,19.0976566 18.409396,19.109073 C18.3571961,19.1190626 18.3102163,19.1404686 18.2684566,19.1732909 C18.228188,19.2046865 18.1953765,19.2403632 18.1700221,19.2803208 C18.1431766,19.3188518 18.1222968,19.3402578 18.1073826,19.3445388 C18.0924683,19.3473931 18.0835197,19.3702262 18.0805366,19.4130382 C18.0760626,19.4558502 18.0663684,19.4879591 18.0514541,19.5093651 C18.0365399,19.5307711 18.04176,19.5857132 18.0671144,19.6741915 C18.0939598,19.7640964 18.1133482,19.8540014 18.1252794,19.9439063 C18.1357195,20.0323846 18.1312454,20.0851862 18.1118571,20.1023111 C18.0939598,20.1208628 18.0715885,20.1322792 18.044743,20.1365602 C18.0193886,20.1394145 17.9992543,20.2835482 17.98434,20.5689613 C17.9694258,20.8543744 17.97912,21.050596 18.0134226,21.1576259 C18.0462341,21.2646558 18.0715885,21.3217384 18.0894857,21.3288738 C18.1088741,21.3360091 18.1357195,21.3838159 18.1700221,21.4722941 C18.2028336,21.5621991 18.2580165,21.6406877 18.3355707,21.7077599 C18.414616,21.7762589 18.4638329,21.8404769 18.4832212,21.9004138 C18.5011185,21.9617774 18.5436242,22.0138652 18.6107383,22.0566772 C18.6778523,22.0994892 18.7636092,22.1351658 18.8680089,22.1637071 C18.9724087,22.1922484 19.0320656,22.2172221 19.0469799,22.2386281 C19.0618941,22.2600341 19.1178225,22.2671694 19.2147651,22.2600341 C19.3117077,22.2528987 19.3862789,22.2386281 19.4384787,22.2172221 C19.4906786,22.1958161 19.5801641,22.1672748 19.7069351,22.1315982 C19.8337062,22.0959215 19.9008203,22.0902133 19.9082774,22.1144736 C19.9157345,22.1401606 19.9507831,22.1423011 20.0134231,22.1208952 C20.0775542,22.0994892 20.1193139,22.0688074 20.1387022,22.0288497 C20.1565995,21.9903187 20.1767338,21.9589231 20.1991051,21.9346628 C20.2214765,21.9089758 20.2401193,21.8961323 20.2550336,21.8961323 C20.2699478,21.8961323 20.2885906,21.8547475 20.310962,21.7719779 C20.3333333,21.690635 20.3504846,21.626417 20.3624158,21.579324 C20.372856,21.5336578 20.3818046,21.4787156 20.3892617,21.4144977 C20.3967189,21.3502797 20.4280389,21.2981919 20.4832217,21.2582343 C20.5398957,21.2197033 20.6614467,21.1754642 20.8478747,21.1255169 C21.0343028,21.0755696 21.1387025,21.050596 21.1610738,21.050596 C21.1834452,21.050596 21.2244594,21.050596 21.2841163,21.050596 L21.3736018,21.050596 L21.4407159,21.02919 L21.4407159,21.1469229 C21.4332588,21.2182762 21.416853,21.2610881 21.3914986,21.2753588 C21.3646532,21.2896294 21.3378077,21.3360091 21.3109622,21.4144977 C21.2856078,21.4929863 21.2729306,21.5536366 21.2729306,21.5964486 C21.2729306,21.6392605 21.2729306,21.6927755 21.2729306,21.7569934 C21.2729306,21.8212114 21.2677106,21.8761535 21.2572704,21.9218198 C21.2453392,21.9689128 21.2281879,21.9903187 21.2058166,21.9860377 C21.1722595,21.9460796 21.1648024,21.9389443 21.1498881,21.9389443 L21.1454136,22.0780832 C21.1558538,22.1708425 21.1610738,22.28144 21.1610738,22.4098759 C21.1610738,22.5383118 21.1461596,22.6203681 21.1163311,22.6560448 C21.0865026,22.6917214 21.0678598,22.716695 21.0604027,22.7309657 L21.0201345,22.7951837 L21.082774,22.8272926 L21.1722595,22.8486986 L21.3064877,22.8165896 C21.3959732,22.7951837 21.5041014,22.7737777 21.6308725,22.7523717 C21.7576435,22.7309657 21.8434004,22.7095597 21.8881432,22.6881537 C21.9328859,22.6667477 22.0223714,22.6489094 22.1565996,22.6346388 C22.2908277,22.6203681 22.3892618,22.6182276 22.4519018,22.6282172 C22.5160329,22.6396336 22.5577926,22.6631801 22.5771809,22.6988567 C22.5950782,22.7345334 22.6487696,22.7537988 22.738255,22.7566531 C22.8277405,22.7609342 22.8709917,22.7823401 22.8680087,22.8208711 C22.8635346,22.8608288 22.8687547,22.9093489 22.8836689,22.9664315 C22.8985831,23.0235141 22.891126,23.0841644 22.8612975,23.1483824 C22.8314691,23.2126003 22.8277405,23.3089273 22.8501119,23.4373632 C22.8724832,23.5657991 22.888889,23.6357252 22.8993291,23.6471416 C22.8612975,23.6714018 22.8486203,23.6906673 22.8456373,23.726344 C22.8411632,23.7620206 22.8426547,23.7905619 22.8501119,23.8119679 C22.857569,23.8333739 22.8538404,23.8726182 22.8389262,23.9297008 C22.8240119,23.9867834 22.8351976,24.0331631 22.8724832,24.0688397 C22.9097688,24.1045163 22.9455629,24.1451878 22.9798655,24.1908541 C23.012677,24.2379471 23.0775541,24.2864672 23.1744966,24.3364145 C23.2714392,24.3863618 23.4168531,24.4184708 23.6107383,24.4327414 C23.8046234,24.4470121 23.9388516,24.4363091 24.0134228,24.4006324 C24.087994,24.3649558 24.1536166,24.3307063 24.2102906,24.297884 C24.2654734,24.2664884 24.298285,24.2422281 24.3087251,24.2251031 C24.3206563,24.2065514 24.3564504,24.1901403 24.4161074,24.1758696 C24.4757644,24.161599 24.5652498,24.1580313 24.6845638,24.1651666 C24.8038777,24.172302 24.9082774,24.1972756 24.9977629,24.2400876 C25.0872483,24.2828995 25.1655481,24.3007379 25.2326622,24.2936025 C25.2997763,24.2864672 25.3840417,24.2165411 25.4854583,24.0838241 C25.585384,23.9525339 25.6450409,23.8904565 25.6644293,23.8975918 C25.6823265,23.9047272 25.6950037,23.8333739 25.7024609,23.683532 C25.709918,23.5336901 25.7360179,23.4430713 25.7807606,23.4116757 C25.8255034,23.3788534 25.8777032,23.3553069 25.9373602,23.3410362 C25.9970172,23.3267656 26.0417599,23.2946566 26.0715884,23.2447093 C26.1014169,23.194762 26.1595823,23.1576582 26.2460847,23.1333979 C26.3310961,23.1077109 26.3997017,23.0698938 26.4519016,23.0199465 C26.5041014,22.9699992 26.5324384,22.9378902 26.5369125,22.9236196 C26.5398955,22.9093489 26.5637584,22.8950782 26.6085011,22.8808076 C26.6532438,22.8665369 26.6793438,22.834428 26.6868009,22.7844807 C26.694258,22.7345334 26.7091723,22.7038515 26.7315436,22.6924352 C26.7464579,22.6857754 26.7651007,22.6736453 26.787472,22.6560448 L26.8366893,22.6068113 L26.8993289,22.5918268 L26.9619684,22.6068113 L26.9776286,22.6881537 L26.9552573,22.7523717 C26.9366145,22.7880483 26.9291573,22.802319 26.9217002,22.8165896 C26.9142431,22.8308603 26.8859061,22.8465581 26.8366893,22.8636831 L26.7651007,22.8915106 L26.8053689,22.949307 L26.8590607,23.0199465 C26.8859061,23.0556231 26.9142431,23.0698938 26.9440716,23.0627585 C26.9739001,23.0556231 26.9888143,23.1555177 26.9888143,23.3624422 L26.9888143,23.672829 L26.5302013,23.672829 L26.0715884,23.672829 L26.0715884,24.3364145 L26.0715884,25 L25.6465324,24.9957199 C25.3631618,24.991438 25.2155109,24.9771673 25.2035797,24.9529079 C25.1931395,24.92722 25.1483968,24.8772727 25.0693515,24.803066 C24.9917973,24.7274308 24.912006,24.6360983 24.8299776,24.5290684 C24.7479493,24.4220384 24.665921,24.3635291 24.5838926,24.3535403 C24.5018643,24.3421231 24.4444444,24.3685235 24.4116328,24.4327414 C24.3773303,24.4969594 24.3325875,24.5447657 24.2774047,24.5761605 L24.1923937,24.6253953 L24.241611,24.7260024 C24.2833707,24.7730962 24.3057421,24.7987841 24.3087251,24.803066 L24.2818792,24.8715641 L24.2147651,24.9036731 L24.147651,24.946485 C24.0917226,24.9643234 24.0656227,24.9657501 24.0357942,24.9614682 C24.0059657,24.9586147 23.9910515,24.9393497 23.9910515,24.9036731 C23.9910515,24.8679964 23.9537658,24.8515848 23.8791946,24.8544383 C23.8046234,24.8587202 23.7524236,24.8501581 23.7225951,24.8287521 C23.6927666,24.8073461 23.5659955,24.7916488 23.3422819,24.78166 C23.1185682,24.7702428 22.9955257,24.7374196 22.9731544,24.6831904 C22.950783,24.6303897 22.891126,24.5825833 22.7941834,24.5397713 C22.6972409,24.4969594 22.6002983,24.4755534 22.5033557,24.4755534 C22.4064131,24.4755534 22.3318419,24.4648504 22.2796421,24.4434444 L22.2013423,24.4113354 C22.1700223,24.3806532 22.1655482,24.3685235 22.1610741,24.3471175 C22.2311708,24.2971702 22.246085,24.2864672 22.246085,24.2721965 C22.1901566,24.2422281 22.1789709,24.2186816 22.1789709,24.1758696 C22.1789709,24.1330577 22.1416853,24.0938133 22.0671141,24.0581367 C21.9925429,24.0224601 21.9254288,23.9760804 21.8657718,23.9189978 C21.8061148,23.8619152 21.7278151,23.8141084 21.6308725,23.7755775 C21.5339299,23.7356198 21.4869501,23.694235 21.4899332,23.651423 L21.4899332,23.5657991 C21.4317672,23.5800697 21.419836,23.5957675 21.4004477,23.6128925 C21.3825504,23.6314442 21.3288591,23.64072 21.2393736,23.64072 C21.1498881,23.64072 21.0641312,23.6335847 20.9821029,23.619314 C20.9000746,23.6050434 20.7919463,23.5800697 20.6577181,23.5443931 C20.5234899,23.5087165 20.4190902,23.4908781 20.344519,23.4908781 C20.2699478,23.4908781 20.1804623,23.474467 20.0760626,23.4416446 C19.9716629,23.410249 19.9045488,23.3788534 19.8747204,23.3474578 C19.8448919,23.3146354 19.8135719,23.2818131 19.7807604,23.2489908 C19.7464578,23.2175952 19.7121552,23.2018973 19.6778526,23.2018973 C19.6286353,23.1662207 19.6137211,23.162653 19.5838926,23.1697884 C19.5302013,23.1091381 19.5078299,23.0820239 19.4675613,23.0563369 C19.4258016,23.0320766 19.3750932,23.0056758 19.3154362,22.9771345 C19.2557793,22.9485932 19.1737509,22.9271872 19.0693512,22.9129166 C18.9649515,22.8986459 18.8866518,22.9093489 18.8344519,22.9450255 C18.7822521,22.9807022 18.7114094,23.0128112 18.6219239,23.0413525 C18.5324385,23.0698938 18.3967188,23.064899 18.2147648,23.026368 C18.0313198,22.9864104 17.8672631,22.9435984 17.7225948,22.8979321 C17.5764354,22.8508391 17.4287845,22.802319 17.2796421,22.7523717 C17.1304996,22.7024244 17.0149142,22.6560448 16.9328859,22.6132328 C16.8508576,22.5704208 16.7889635,22.5326037 16.7472038,22.4997813 C16.7069352,22.4683857 16.6696496,22.4469797 16.635347,22.4355634 C16.6025355,22.4255737 16.5152871,22.399173 16.3736018,22.356361 C16.2319165,22.313549 16.1387025,22.2671694 16.0939597,22.2172221 C16.049217,22.1672748 15.9709172,22.1159003 15.8590604,22.0630987 C15.7472036,22.0088704 15.6912752,21.9746209 15.6912752,21.9603503 C15.6539896,21.9389443 15.6316182,21.9189655 15.6017897,21.8790078 C15.5719612,21.8404769 15.5421327,21.7833942 15.5123043,21.7077599 C15.4824758,21.6335523 15.4862043,21.5928809 15.5234899,21.5857456 C15.5607755,21.5786102 15.5719612,21.5500689 15.557047,21.5001216 C15.5421327,21.4501743 15.5421327,21.4237735 15.557047,21.4209192 C15.5719612,21.4166382 15.5809099,21.3880969 15.5838929,21.3352953 C15.588367,21.281067 15.5794183,21.2396822 15.557047,21.2111408 C15.5346756,21.1825995 15.5160328,21.1290846 15.5011186,21.050596 C15.4862043,20.9721074 15.4511558,20.9057489 15.3959729,20.8515206 C15.3392989,20.798719 15.282625,20.7316467 15.2259511,20.6503038 C15.1707682,20.5675342 15.1260254,20.5154464 15.0917229,20.4940404 C15.0589113,20.4726344 15.033557,20.4476607 15.0156597,20.4191194 C14.9962713,20.3905781 14.9664429,20.3606097 14.9261742,20.329214 C14.8844145,20.2963917 14.8471289,20.2492987 14.8143174,20.1879351 C14.7800148,20.1279981 14.7404922,20.083759 14.6957494,20.0552177 C14.6510067,20.0266764 14.608501,20.0017027 14.5682324,19.9802968 C14.5264727,19.9588908 14.5041013,19.9410525 14.5011183,19.9267818 C14.4474274,19.8875375 14.4384787,19.8554285 14.4384787,19.7983459 C14.4384787,19.7412633 14.4459359,19.712722 14.4608501,19.712722 C14.4742728,19.6413687 14.4198359,19.5807184 14.3154362,19.4879591 C14.2110365,19.3951999 14.1565996,19.3217061 14.1521255,19.2674778 C14.1491425,19.2146762 14.1178225,19.1740047 14.0581655,19.1454634 C13.9985086,19.1169221 13.9537658,19.0762506 13.9239374,19.023449 C13.8941089,18.9692207 13.8717375,18.9421065 13.8568233,18.9421065 C13.841909,18.9421065 13.8158091,18.9192734 13.7785235,18.8736071 C13.7412379,18.8265141 13.7002237,18.8008271 13.655481,18.7965461 C13.6107383,18.7936918 13.5973155,18.7637233 13.6152128,18.7066407 C13.6346011,18.6495581 13.624161,18.5553717 13.5838923,18.4240815 C13.5421326,18.2913645 13.5152872,18.19147 13.503356,18.1243977 C13.4929158,18.0558987 13.4675614,18.0088057 13.4272928,17.9831187 C13.3855331,17.9588584 13.3609247,17.9345981 13.3534676,17.9103379 C13.3460104,17.8846509 13.3199105,17.8703802 13.2751678,17.8675259 L13.2080537,17.8611044 L13.1521253,17.8289954 L13.0850112,17.7968864 L13.0626398,18.0858672 C13.0775541,18.2713857 13.0947054,18.3677126 13.1140937,18.374848 C13.131991,18.3819833 13.1618194,18.4176599 13.2035791,18.4818779 C13.2438478,18.5460958 13.2885905,18.6224439 13.3378073,18.7109222 C13.3855331,18.8008271 13.4228187,18.8579098 13.4496642,18.88217 C13.4750186,18.9078571 13.4914243,18.9528095 13.4988814,19.0170275 C13.5063386,19.0812454 13.5227443,19.1204897 13.5480987,19.1347604 C13.5749442,19.1490311 13.5995526,19.1954107 13.6219239,19.2738993 C13.6442953,19.3523879 13.6703952,19.3951999 13.7002237,19.4023352 C13.7300522,19.4094705 13.7658463,19.4701208 13.807606,19.5842861 C13.8478746,19.6984513 13.873229,19.7712317 13.8836692,19.8026274 C13.8956004,19.8354497 13.9149887,19.8782617 13.9418342,19.9310633 C13.9671886,19.9852916 13.9835943,20.0195411 13.9910515,20.0338117 C13.9985086,20.0480824 14.0022371,20.0908943 14.0022371,20.1622476 C14.0022371,20.2336009 14.0298286,20.2749857 14.0850115,20.2864021 C14.1416854,20.2963917 14.178971,20.320652 14.1968683,20.3591829 C14.2162566,20.3991406 14.2296793,20.4298224 14.2371365,20.4512284 L14.2774047,20.5090248 L14.2930649,20.5796643 L14.2595078,20.6545853 L14.1923937,20.6973972 L14.1252796,20.6545853 L14.1029083,20.5903673 C14.054437,20.5154464 14.0149143,20.4690667 13.9507833,20.3977135 C13.8881433,20.3263602 13.8195377,20.2749857 13.7449664,20.2435901 C13.6703952,20.2107678 13.624161,20.1850808 13.6062637,20.1665291 C13.5868754,20.1494041 13.5824013,20.126571 13.5928414,20.0980297 C13.5734526,20.0466552 13.5659955,19.9824373 13.5659955,19.8582824 C13.5659955,19.7327008 13.5585384,19.66991 13.5436242,19.66991 C13.5123042,19.616395 13.4675614,19.5685883 13.3825501,19.4943807 C13.2960476,19.4187464 13.2378822,19.3809292 13.2080537,19.3809292 C13.1782252,19.3809292 13.1126026,19.3288414 13.011186,19.2246658 L12.8612975,19.0705424 L12.823266,19.0106059 L12.7718121,18.9635125 L12.8836689,18.9635125 C12.9358688,18.9849185 12.9694258,18.9956215 12.98434,18.9956215 L13.0402685,18.9635125 L13.0738255,18.8778886 L13.0850112,18.8029676 C13.0648769,18.7508798 13.0551827,18.7316144 13.0402685,18.6959377 C13.0253542,18.6602611 12.9768829,18.6031785 12.8948546,18.5246899 C12.8128262,18.4462012 12.7494407,18.332036 12.704698,18.1821941 C12.6599553,18.0323522 12.6077554,17.8718073 12.5480984,17.7005595 C12.4884415,17.5293116 12.4548844,17.397308 12.4474273,17.3045488 C12.4399702,17.2117895 12.4138702,17.1333009 12.3691275,17.0690829 C12.3243848,17.004865 12.284862,16.9670478 12.2505592,16.9556315 C12.2177479,16.9456419 12.1938852,16.9213816 12.1789709,16.8828506 C12.1640567,16.842893 12.1416853,16.821487 12.1118568,16.8186327 C12.0820283,16.8143517 12.0447427,16.7958 12,16.7629776 C11.9552573,16.731582 11.9313945,16.7087489 11.9284117,16.6944782 C11.9239374,16.6802076 11.8806861,16.6552339 11.7986577,16.6195573 C11.7166294,16.5838806 11.6718867,16.5303657 11.6644295,16.4590124 C11.6569724,16.3876591 11.6457867,16.3305765 11.6308725,16.2877645 C11.6159582,16.2449526 11.5861298,16.177167 11.541387,16.0844077 C11.4966443,15.9916484 11.4817301,15.9095922 11.4966443,15.8382389 C11.5115585,15.7668856 11.5018643,15.7183654 11.4675615,15.6926784 C11.4347502,15.6684182 11.4123788,15.6184709 11.4004474,15.5428365 C11.3900074,15.468629 11.3795675,15.4186817 11.3691276,15.3929947 C11.3571961,15.3687344 11.3378076,15.3159328 11.3109619,15.2345899 C11.2856077,15.1518202 11.2692021,15.0569205 11.261745,14.9498905 C11.2542878,14.8428606 11.2431022,14.732263 11.2281879,14.6180978 C11.2132737,14.5039325 11.2207308,14.4290116 11.2505593,14.393335 C11.2803878,14.3576583 11.3064877,14.275602 11.3288591,14.1471661 C11.3512304,14.0187302 11.3698732,13.9081327 11.3847875,13.8153734 C11.3997017,13.7226141 11.4295302,13.6441255 11.4742729,13.5799076 C11.5190157,13.5156896 11.5525727,13.4514717 11.5749441,13.3872537 C11.5973154,13.3230358 11.6495153,13.2017352 11.7315436,13.023352 C11.813572,12.8449688 11.8657718,12.6344766 11.8881432,12.3918755 C11.9105145,12.1492743 11.9388516,12.0222656 11.9731544,12.0108492 C11.9642058,11.9673234 11.9552573,11.9566204 11.9552573,11.9423498 C11.9179717,11.9123813 11.8993289,11.8924025 11.8769575,11.8567259 C11.8545861,11.8210492 11.792692,11.7197275 11.6912751,11.5527606 C11.5913497,11.3843671 11.5339299,11.2537906 11.5190157,11.1610314 C11.5041014,11.0682721 11.5212528,11.0204653 11.5704699,11.017611 C11.6181954,11.01333 11.6420582,10.9162897 11.6420582,10.7264902 C11.6420582,10.5381173 11.6271439,10.4403633 11.5973154,10.4332279 C11.567487,10.4260926 11.5585384,10.3975513 11.5704699,10.347604 C11.5809098,10.2976567 11.567487,10.2441417 11.5302013,10.1870591 C11.4929157,10.1299765 11.4765101,10.0621909 11.4809844,9.98370226 C11.4839672,9.90521365 11.4929157,9.8645422 11.50783,9.8616879 C11.5227442,9.85740687 11.5451156,9.82173023 11.5749441,9.75465798 C11.6047726,9.686159 11.6122297,9.65190951 11.5973154,9.65190951 C11.5749441,9.57199375 11.5637584,9.55201492 11.541387,9.54487959 C11.5190157,9.53774426 11.5063386,9.5077758 11.5033558,9.4549742 L11.4966443,9.37363172 L11.4742729,9.30941377 L11.4295302,9.37363172 C11.414616,9.43071434 11.4034303,9.46639098 11.3959732,9.48066164 L11.3624161,9.54487959 L11.3064877,9.49136463 L11.2841163,9.42714668 L11.2393736,9.48066164 L11.2170022,9.3950377 C11.2170022,9.33795508 11.2095451,9.30941377 11.1946309,9.30941377 C11.181208,9.22022217 11.1946309,9.19168086 11.2170022,9.17027487 C11.2393736,9.14886889 11.2468307,9.10962458 11.2393736,9.05254196 C11.2319165,8.99545934 11.235645,8.93480905 11.2505593,8.8705911 C11.2654735,8.80637315 11.3124534,8.76712884 11.3914989,8.75285819 L11.50783,8.7314522 L11.5257271,8.64582827 L11.4630872,8.65653126 L11.3333333,8.71432767 C11.2781506,8.74001468 11.2468307,8.76356118 11.2393736,8.78496716 L11.1991051,8.85988811 L11.1275168,8.88129409 L11.131991,8.77426417 C11.1364653,8.70291089 11.142431,8.59944863 11.1498881,8.4638774 C11.1573453,8.32830617 11.1722595,8.25338523 11.1946309,8.23911457 C11.2170022,8.22484391 11.2110365,8.20201078 11.1767337,8.17061517 C11.1439224,8.13779283 11.1185683,8.07642918 11.1006712,7.98652422 C11.0812826,7.89804598 11.0566741,7.82526555 11.0268456,7.76818292 C10.9970172,7.7111003 10.9821029,7.661153 10.9821029,7.61834104 C10.9821029,7.57552907 10.9373602,7.50060812 10.8478747,7.3935782 C10.7583893,7.28654829 10.6815809,7.2102003 10.6174496,7.16453424 C10.5548098,7.11744103 10.5123043,7.07605611 10.4899329,7.04037947 C10.4675615,7.00470283 10.4489187,6.96759915 10.4340045,6.92906842 C10.4190902,6.88911054 10.404176,6.86770455 10.3892617,6.86485047 C10.3743475,6.86056923 10.3594333,6.84201733 10.344519,6.80919478 C10.3296048,6.77779938 10.3146905,6.76067463 10.2997763,6.75782055 C10.3131991,6.71572205 10.3221477,6.6907484 10.3221477,6.63366577 L10.3221477,6.54804184 L10.2326622,6.53733885 L10.1655481,6.49452688 C10.1245339,6.57515611 10.1096197,6.59656209 10.0872483,6.60797866 C10.064877,6.61796807 10.0238628,6.62653045 9.96420582,6.63366577 C9.90454884,6.6408011 9.86353468,6.63723344 9.84116331,6.62296278 C9.81879195,6.60869213 9.74049217,6.59442147 9.60626398,6.58015081 L9.4049217,6.55874483 L9.35570477,6.509511 L9.34899329,6.44101192 L9.42729306,6.41960594 L9.55704705,6.2868889 C9.63460107,6.23979569 9.67710664,6.21268142 9.68456376,6.2055461 C9.69202088,6.19841077 9.72930649,6.19127544 9.79642058,6.18414011 L9.89709172,6.17343712 L9.98657718,6.15203114 L9.87472036,6.11992216 L9.7852349,6.10921917 C9.75391501,6.07853724 9.73154365,6.08567256 9.69127523,6.10279731 C9.64951531,6.1213492 9.56152125,6.14489581 9.42729306,6.17343712 C9.29306488,6.20197843 9.1961223,6.22338442 9.13646532,6.23765507 C9.07680835,6.25192573 9.05592839,6.27547233 9.07382544,6.30829488 C9.093214,6.33969028 9.09768831,6.36395036 9.08724839,6.3810751 C9.07531695,6.399627 8.96122297,6.40890294 8.74496644,6.40890294 C8.52870992,6.40890294 8.39075317,6.41603827 8.3310962,6.43030893 C8.27143922,6.44457958 8.18568233,6.44101192 8.0738255,6.41960594 C7.96196868,6.39819995 7.8836689,6.39463229 7.83892617,6.40890294 C7.79418345,6.4231736 7.73079791,6.42103298 7.64876957,6.40248108 C7.56674124,6.38535634 7.5272185,6.36965864 7.53020136,6.35538798 C7.53467562,6.34111733 7.50932139,6.32684667 7.45413868,6.31257602 C7.39746457,6.29830536 7.3616704,6.2997324 7.34675615,6.31685715 C7.33184191,6.33540904 7.31319911,6.31114897 7.29082774,6.24407693 C7.26845638,6.17557774 7.23117077,6.14275519 7.17897092,6.14560928 L7.10067114,6.15203114 L7.03355705,6.10921917 L7,6.03429822 L7.04474273,5.98078326 L7.23489933,6.00218925 C7.33929903,6.0164599 7.40044743,6.03572527 7.41834454,6.05998534 C7.43773304,6.13419282 7.52572707,6.14703643 7.70469799,6.158453 C7.8836689,6.16844241 8.0313199,6.16416117 8.14765098,6.14560928 C8.26249067,6.12848453 8.34004472,6.10707855 8.38031313,6.08139132 C8.42207306,6.05713125 8.44444442,6.0428606 8.44742723,6.03857936 L8.51006711,5.99148626 L8.57718121,5.95937728 L8.51006711,5.90586232 C8.45935867,5.85020674 8.4340045,5.84164437 8.39373609,5.84164437 C8.35197616,5.84164437 8.3325876,5.80240006 8.3355704,5.72391146 C8.34004472,5.64542285 8.3310962,5.59190789 8.30872483,5.56336658 C8.28635347,5.53482527 8.24757646,5.51199224 8.1923938,5.49486749 L8.10738255,5.46703965 L8.08501119,5.39211871 L8.14765098,5.36643159 C8.17300524,5.34074437 8.21327365,5.30792181 8.29082767,5.24655795 C8.36987321,5.18662124 8.42654738,5.1509446 8.46085018,5.13952803 C8.49366147,5.12953861 8.51603283,5.10813263 8.52796427,5.07531008 L8.62192394,5.00681099 L8.68903803,4.996108 L8.66666667,4.92118706 L8.56599553,4.94259304 C8.52870992,4.94972837 8.49664427,4.96542607 8.46979859,4.98968614 C8.44444442,5.01537337 8.41461594,5.02964402 8.38031313,5.03249811 L8.30872483,5.02821698 L8.24161074,4.996108 L8.20805369,4.92118706 L8.23042506,4.83556312 L8.2595079,4.72425207 C8.27740494,4.64861755 8.31021623,4.60152434 8.35794177,4.58297245 C8.40715881,4.5658477 8.43176734,4.53944701 8.43176734,4.50377037 C8.43176734,4.46809373 8.44891874,4.42028706 8.48322154,4.36035034 C8.51603283,4.29898648 8.59358685,4.26616393 8.7158836,4.26188269 C8.83967186,4.2590286 8.92915732,4.24475795 8.98433998,4.21907072 C9.04101415,4.19481065 9.08799403,4.18482123 9.12527964,4.18910247 C9.16256525,4.19195656 9.18493661,4.21621663 9.19239374,4.26188269 C9.19985086,4.3089759 9.24459359,4.35036082 9.32662192,4.38603746 C9.40865026,4.4217141 9.47576435,4.43955242 9.52796421,4.43955242 C9.58016406,4.43955242 9.62266963,4.42314114 9.65548092,4.39031859 C9.68978372,4.35892319 9.71066368,4.32895484 9.71812081,4.30041352 L9.7852349,4.28971053 L9.84116331,4.25760156 L9.80760626,4.1933836 C9.72930649,4.16484229 9.69574944,4.1541393 9.65100671,4.13986865 C9.60626398,4.12559799 9.5779269,4.0991973 9.56599546,4.06066657 C9.55555553,4.02070869 9.52796421,3.96862077 9.48322148,3.90440282 C9.43847875,3.84018487 9.41237882,3.79023757 9.4049217,3.75456093 C9.39746458,3.71888429 9.4049217,3.68320765 9.42729306,3.64753101 C9.44966443,3.61185437 9.4735272,3.58545365 9.49888136,3.56832885 C9.52572705,3.54977701 9.54511561,3.50981919 9.55704705,3.44845539 L9.57270694,3.35855023 L9.65100671,3.34784724 L9.75838933,3.39708098 C9.82848623,3.42847644 9.86577183,3.45487716 9.87024615,3.47628314 C9.87322896,3.49768913 9.89709172,3.50268386 9.94183445,3.49126735 C9.98657718,3.48127788 10.0164057,3.48341847 10.0313199,3.49768913 C10.0412627,3.5072029 10.0636341,3.52147355 10.098434,3.54050109 L10.1163312,3.61114082 C10.1043997,3.63540095 10.0894855,3.65252575 10.0715884,3.66251522 C10.0425056,3.71531663 10.0462342,3.73672261 10.0536913,3.76526393 L10.0805368,3.82520075 L10.1655481,3.86159085 L10.228188,3.84660673 L10.2818791,3.7973729 L10.310962,3.62612503 C10.3258762,3.53336577 10.3482476,3.46914781 10.3780761,3.43347117 C10.4079045,3.39779453 10.4354959,3.32144652 10.46085,3.20442713 C10.4876957,3.0859807 10.5346756,3.01962215 10.6017897,3.0053515 C10.6689038,2.99108084 10.7211037,3.0053515 10.7583893,3.04816346 C10.7956749,3.09097543 10.8553318,3.11238142 10.9373602,3.11238142 C11.0193885,3.11238142 11.0939597,3.11238142 11.1610738,3.11238142 C11.2281879,3.11238142 11.2803878,3.1337874 11.3176734,3.17659937 C11.354959,3.21941134 11.3997017,3.23724966 11.4519016,3.23011433 C11.5041014,3.222979 11.541387,3.21584367 11.5637584,3.20870834 C11.5861298,3.20157302 11.6196868,3.21584367 11.6644295,3.25152031 C11.7091723,3.28719695 11.7688292,3.31716534 11.8434004,3.34142547 C11.9179717,3.36711263 11.9515287,3.4013622 11.9440716,3.44417417 C11.9366145,3.48698613 11.9463087,3.51195978 11.9731544,3.51909511 C11.9985086,3.52623044 12.0089485,3.54763642 12.0044742,3.58331306 C12.0014914,3.6189897 12.0164056,3.64396335 12.0492169,3.65823401 C12.0835197,3.67250466 12.1043997,3.71888429 12.1118568,3.7973729 C12.1193139,3.87586151 12.1401939,3.93080351 12.1744967,3.96219891 C12.207308,3.99502147 12.2326622,4.01357336 12.2505592,4.0178546 C12.2699478,4.02070869 12.2908277,4.03997405 12.3131991,4.07565069 C12.3355705,4.11132733 12.3489933,4.1541393 12.3534676,4.2040866 C12.3564504,4.25403389 12.3788218,4.29684586 12.4205817,4.3325225 C12.4608501,4.36819914 12.4862044,4.39459983 12.4966446,4.41172458 C12.5085758,4.43027647 12.5369128,4.45025541 12.5816555,4.4716614 C12.6263982,4.49306738 12.6651753,4.52731698 12.6979868,4.57441018 C12.7322894,4.62007624 12.7621179,4.67002354 12.7874723,4.72425207 C12.8143178,4.77705346 12.8516034,4.82271951 12.8993291,4.86125024 C12.948546,4.90120812 12.9806115,4.9568637 12.9955257,5.02821698 C13.01044,5.09957026 13.0231172,5.15308522 13.0335573,5.18876186 C13.0454885,5.2244385 13.0738255,5.2479851 13.1185682,5.25940167 C13.163311,5.26939109 13.1931394,5.2636828 13.2080537,5.24227682 C13.2229679,5.22087083 13.258762,5.21516255 13.315436,5.22515197 C13.3706189,5.23656853 13.4034304,5.25083919 13.4138705,5.26796393 C13.4258017,5.28651583 13.442953,5.2979324 13.4653244,5.30221364 C13.4876957,5.30506773 13.4929158,5.33146842 13.4809846,5.38141571 C13.4705445,5.43136301 13.4824757,5.45062837 13.5167783,5.43921181 C13.5495898,5.42922239 13.5846383,5.42922239 13.6219239,5.43921181 C13.6592095,5.45062837 13.6778523,5.46703965 13.6778523,5.48844563 C13.6778523,5.50985162 13.7017152,5.51698695 13.749441,5.50985162 C13.7986578,5.50271629 13.8359434,5.4763156 13.8612978,5.43064954 C13.8881433,5.38355633 13.9425802,5.35644207 14.0246085,5.34930674 C14.1066368,5.34217141 14.1610737,5.32219247 14.1879192,5.28936992 C14.2132736,5.25797452 14.238628,5.30078649 14.2639824,5.41780582 C14.2908278,5.53625231 14.3154362,5.60261088 14.3378076,5.61688154 C14.3900075,5.59333493 14.4161074,5.57192895 14.4608501,5.54624173 C14.5055928,5.52198165 14.5279642,5.54552826 14.5279642,5.61688154 C14.5279642,5.68823482 14.54437,5.71891675 14.5771815,5.70892733 C14.6114841,5.69751076 14.6308724,5.68466715 14.6353465,5.6703965 C14.6383295,5.65612584 14.6733781,5.65755289 14.7404922,5.67467763 C14.8076063,5.69322953 14.8598061,5.72747912 14.8970917,5.77742642 C14.9343773,5.82737371 14.9843401,5.87589396 15.0469801,5.92298717 C15.1111112,5.96865323 15.1633111,6.0114652 15.2035797,6.05142308 C15.2453394,6.0899538 15.3020133,6.11849512 15.3736015,6.13704701 C15.4436986,6.15417176 15.4936614,6.19127544 15.5234899,6.24835806 C15.5533184,6.30544069 15.5458613,6.34468499 15.5011186,6.36609098 C15.4563758,6.38749696 15.4287844,6.40676232 15.4183443,6.42388707 C15.406413,6.44243896 15.4526473,6.4731209 15.557047,6.51593286 C15.6614467,6.55874483 15.7695749,6.57515611 15.8814318,6.56516669 C15.9932886,6.55375012 16.0529456,6.55660421 16.0604027,6.57372896 C16.0678598,6.59228085 16.0879941,6.60655151 16.1208056,6.61654092 C16.1551082,6.62795749 16.1744966,6.6408011 16.1789706,6.65507176 C16.2490678,6.65863942 16.261745,6.62653045 16.261745,6.56944782 C16.261745,6.5123652 16.2580164,6.47668856 16.2505593,6.4624179 C16.2863534,6.39677291 16.3475019,6.37536692 16.4519016,6.35110685 C16.5563013,6.32541963 16.6159582,6.333982 16.6308725,6.37679397 C16.6457867,6.41960594 16.6666666,6.44101192 16.693512,6.44101192 C16.7129008,6.49452688 16.7143923,6.51950053 16.7248325,6.54804184 C16.7367637,6.57658315 16.7636092,6.59085381 16.8053689,6.59085381 C16.8456375,6.59085381 16.8859061,6.60655151 16.9261748,6.63794691 C16.9679345,6.67076946 17.0708427,6.68932135 17.2348993,6.69360259 C17.398956,6.69645668 17.4847129,6.66577475 17.49217,6.6015568 C17.4996271,6.53733885 17.5108128,6.50522987 17.5257271,6.50522987 C17.5294556,6.40676232 17.4996271,6.37822101 17.4474273,6.35966912 C17.3952274,6.34254437 17.3691275,6.32327901 17.3691275,6.30187302 C17.3691275,6.28046704 17.3855333,6.26262872 17.4183448,6.24835806 C17.4526474,6.23408741 17.4794928,6.19983781 17.4988812,6.14560928 C17.5167784,6.09280789 17.5391498,6.06854782 17.5659953,6.07282906 C17.613721,6.11278683 17.6375839,6.12348982 17.6823266,6.13062515 C17.7270694,6.13776048 17.7628634,6.16630179 17.7897089,6.21624909 C17.8150633,6.26619638 17.8240119,6.31257602 17.8165548,6.35538798 C17.8090977,6.39819995 17.7807607,6.4231736 17.7315439,6.43030893 C17.6838181,6.43744426 17.6674124,6.45670962 17.6823266,6.48810502 C17.6972409,6.52092757 17.7196122,6.53947947 17.7494407,6.54376071 C17.7792692,6.54661479 17.797912,6.59085381 17.8053691,6.67647774 C17.8128262,6.76210168 17.8255034,6.79777832 17.8434007,6.78350766 C17.8627891,6.76923701 17.8762118,6.73712803 17.8836689,6.68718073 C17.891126,6.63723344 17.917226,6.59085381 17.9619687,6.54804184 C18.0067114,6.50522987 18.0313198,6.46812619 18.0357939,6.43673079 C18.0387769,6.40390824 18.0268457,6.38250225 18.0000003,6.37251283 C17.9746459,6.36109627 17.9597316,6.32113839 17.9552575,6.2526392 C17.9522745,6.18556716 17.9284116,6.14989052 17.8836689,6.14560928 C17.8389262,6.14275519 17.8150633,6.12705749 17.8120803,6.09851618 C17.8076062,6.06997486 17.7904549,6.04143355 17.7606264,6.01289224 C17.7307979,5.98435093 17.7106636,5.90229466 17.7002234,5.76672342 C17.6882922,5.63115219 17.6935123,5.56336658 17.7158837,5.56336658 C17.738255,5.56336658 17.7554063,5.50628395 17.7673375,5.39211871 C17.7777777,5.27795346 17.7777777,5.20303251 17.7673375,5.16735587 C17.7554063,5.13167923 17.7807607,5.11740858 17.8434007,5.12454391 C17.9075318,5.13167923 17.9358688,5.16022055 17.9284116,5.21016784 C17.9209545,5.26011514 17.9149889,5.30792181 17.9105148,5.35358787 C17.9075318,5.40068108 17.917226,5.43635772 17.9395973,5.46061779 C17.9619687,5.48630501 17.9806115,5.49914863 17.9955257,5.49914863 C18.01044,5.49914863 18.0492171,5.56693424 18.1118571,5.70250547 C18.1759882,5.8380767 18.2080537,5.93440363 18.2080537,5.99148626 C18.2080537,6.04856888 18.2401192,6.07853724 18.3042503,6.08139132 C18.3668903,6.08567256 18.4056674,6.09851618 18.4205817,6.11992216 C18.4056674,6.16130708 18.411633,6.18770778 18.4384785,6.23765507 C18.4638329,6.28760237 18.4862042,6.28760237 18.5055926,6.23765507 C18.5234898,6.18770778 18.5585384,6.16844241 18.6107383,6.17985898 C18.6629381,6.1898484 18.6979867,6.19983781 18.7158839,6.20982723 C18.7352723,6.2212438 18.7501865,6.26405576 18.7606267,6.33826313 C18.7725579,6.41389765 18.7822521,6.4731209 18.7897092,6.51593286 C18.7971663,6.55874483 18.8195377,6.6015568 18.8568233,6.64436877 C18.8941089,6.68718073 18.9291574,6.69931077 18.9619689,6.68075888 C18.9962715,6.66363413 18.9985086,6.61939512 18.9686801,6.54804184 C18.9388516,6.47668856 18.9410887,6.44101192 18.9753912,6.44101192 C19.0082027,6.44101192 19.0283371,6.38535634 19.0357942,6.27404518 C19.0432513,6.16416117 19.0380312,6.0899538 19.020134,6.05142308 C19.0007456,6.0114652 18.99478,5.97364794 19.0022371,5.9379713 C19.0096943,5.90229466 19.0261,5.87874805 19.0514544,5.86733149 C19.0782999,5.85734207 19.1155855,5.85020674 19.1633112,5.8459255 C19.2125281,5.84307141 19.2393735,5.83450904 19.2438476,5.82023838 Z" id="svg_2" stroke="#1FE4CB" stroke-width="2"></path>
            <circle id="Oval-5" stroke="#000000" stroke-width="2" cx="21" cy="21" r="21"></circle>
            <path d="" id="Path-2" stroke="#979797"></path>
            <path d="M24.8492598,28.6829444 C24.0007207,29.2322471 23.2119428,28.8443117 22.9180246,29.1878277 C22.7220792,29.4168383 22.4538521,30.3144087 22.1133433,31.8805387 C21.9622189,32.9486538 21.9622189,33.6779297 22.1133433,34.0683664 C22.3400298,34.6540214 22.6870201,35.3272906 23.4813016,35.4147219 C24.275583,35.5021531 24.6003592,34.5065501 25.1711324,34.4049553 C25.7419055,34.3033604 26.0756734,33.7315364 26.2976863,35.4147219 C26.4456949,36.5368456 26.2847586,37.8271029 25.8148775,39.2854939 C25.8148775,39.6580595 25.8148775,39.9385502 25.8148775,40.1269661 C25.8148775,40.40959 25.0725383,41.1625082 25.8148775,40.9684383 C26.5572166,40.7743684 27.2207825,40.0997774 27.7461127,39.6220828 C28.2714429,39.1443882 28.2857815,38.4099949 29.1945391,37.0976663 C30.1032967,35.7853376 30.996465,35.0255094 31.1257744,34.7415441 C31.2550837,34.4575789 30.9291869,34.3356147 31.1257744,34.0683664 C31.3223618,33.8011181 32.3356784,33.55625 32.7351371,32.5537164 C33.1345957,31.5511829 33.0387422,30.5910064 32.7351371,30.0292999 C32.4315319,29.4675933 33.3788821,27 30.8039018,27.6731778 C28.2289215,28.3463555 27.3290914,27 26.2976863,27 C25.2662811,27 25.697799,28.1336416 24.8492598,28.6829444 Z" id="Path-3" stroke="#000000" stroke-width="2"></path>
        </g>
    </g>
</svg>