<?xml version="1.0" encoding="UTF-8"?>
<svg width="57px" height="39px" viewBox="0 0 57 39" version="1.1" xmlns="http://www.w3.org/2000/svg" xmlns:xlink="http://www.w3.org/1999/xlink">
    <!-- Generator: Sketch 47.1 (45422) - http://www.bohemiancoding.com/sketch -->
    <title>Per location revenue</title>
    <desc>Created with Sketch.</desc>
    <defs></defs>
    <g id="Page-1" stroke="none" stroke-width="1" fill="none" fill-rule="evenodd">
        <g id="Per-location-revenue" transform="translate(1.000000, 1.000000)" stroke-width="2">
            <rect id="Rectangle" stroke="#000000" x="3" y="10" width="37" height="27" rx="2"></rect>
            <g id="Group-3" stroke="#000000" fill="#FFFFFF">
                <path d="M10.2000122,15 C10.2000122,12.2385763 7.96143596,10 5.20001221,10 C2.43858846,10 0.200012207,12.2385763 0.200012207,15 C3.70001221,15 7.20001221,15 10.2000122,15 Z" id="Oval-3" transform="translate(5.200012, 12.500000) scale(1, -1) translate(-5.200012, -12.500000) "></path>
                <path d="M21,15 C21,12.2385763 18.7614237,10 16,10 C13.2385763,10 11,12.2385763 11,15 C14.5,15 18,15 21,15 Z" id="Oval-3-Copy-3" transform="translate(16.000000, 12.500000) scale(1, -1) translate(-16.000000, -12.500000) "></path>
                <path d="M32,15 C32,12.2385763 29.7614237,10 27,10 C24.2385763,10 22,12.2385763 22,15 C25.5,15 29,15 32,15 Z" id="Oval-3-Copy-4" transform="translate(27.000000, 12.500000) scale(1, -1) translate(-27.000000, -12.500000) "></path>
                <path d="M42.7999878,15 C42.7999878,12.2385763 40.5614115,10 37.7999878,10 C35.038564,10 32.7999878,12.2385763 32.7999878,15 C36.2999878,15 39.7999878,15 42.7999878,15 Z" id="Oval-3-Copy-5" transform="translate(37.799988, 12.500000) scale(1, -1) translate(-37.799988, -12.500000) "></path>
                <polygon id="Path" stroke-linecap="round" stroke-linejoin="round" points="5.8207817 0 37.1689704 0 43 10 0 10"></polygon>
            </g>
            <rect id="Rectangle-2" stroke="#000000" x="8" y="20" width="9" height="17" rx="1"></rect>
            <path d="M46,32.183 C47.168,33.2 48.968,33.963 50.267,33.963 C52.346,33.963 54.031,32.489 54.031,30.671 C54.031,28.854 52.232,27.955 50.267,27.381 C48.231,26.742 46.503,25.907 46.503,24.089 C46.503,22.272 48.188,20.799 50.267,20.799 C51.667,20.799 52.888,21.466 53.537,22.458 M49.562,19 L49.562,20.798 M49.562,33.962 L49.562,35.761" id="Shape" stroke="#1FE4CB"></path>
            <rect id="Rectangle-3" stroke="#000000" x="25" y="20" width="11" height="9" rx="1"></rect>
        </g>
    </g>
</svg>