<?xml version="1.0" encoding="UTF-8"?>
<svg width="44px" height="44px" viewBox="0 0 44 44" version="1.1" xmlns="http://www.w3.org/2000/svg" xmlns:xlink="http://www.w3.org/1999/xlink">
    <!-- Generator: Sketch 47.1 (45422) - http://www.bohemiancoding.com/sketch -->
    <title>White labeled</title>
    <desc>Created with Sketch.</desc>
    <defs></defs>
    <g id="Page-1" stroke="none" stroke-width="1" fill="none" fill-rule="evenodd">
        <g id="White-labeled" transform="translate(1.000000, 1.000000)" stroke-width="2">
            <path d="M33.0005426,5 L23.6684488,5 C21.4687472,5 18.3964441,6.27255629 16.8409751,7.82803618 L1.16654173,23.5024997 C-0.388847243,25.0578996 -0.388847243,27.6031721 1.16654173,29.158652 L12.8415177,40.8333901 C14.3969067,42.38887 16.9421614,42.38887 18.4976303,40.8333901 L34.1718237,25.1591666 C35.7273727,23.6036867 37,20.5312819 37,18.3315649 L37,8.99948547 C37,6.79976846 35.2002442,5 33.0005426,5 Z" id="Path" stroke="#000000"></path>
            <path d="M28,18 C25.79088,18 24,16.2092 24,14 C24,11.79088 25.79088,10 28,10 C30.20912,10 32,11.79088 32,14 C32,16.2092 30.20912,18 28,18 Z" id="Path" stroke="#1FE4CB" fill="#FFFFFF"></path>
            <path d="M41.5,0.5 L28.5,13.5" id="Line-5" stroke="#000000" stroke-linecap="round"></path>
        </g>
    </g>
</svg>